<?xml version="1.0" encoding="UTF-8" standalone="no"?>
<!-- Created with Inkscape (http://www.inkscape.org/) -->

<svg
   xmlns:dc="http://purl.org/dc/elements/1.1/"
   xmlns:cc="http://creativecommons.org/ns#"
   xmlns:rdf="http://www.w3.org/1999/02/22-rdf-syntax-ns#"
   xmlns:svg="http://www.w3.org/2000/svg"
   xmlns="http://www.w3.org/2000/svg"
   xmlns:xlink="http://www.w3.org/1999/xlink"
   xmlns:sodipodi="http://sodipodi.sourceforge.net/DTD/sodipodi-0.dtd"
   xmlns:inkscape="http://www.inkscape.org/namespaces/inkscape"
   width="256"
   height="256"
   id="svg2"
   version="1.1"
   inkscape:version="0.48.2 r9819"
   sodipodi:docname="reload.svg">
  <defs
     id="defs4">
    <linearGradient
       inkscape:collect="always"
       id="linearGradient4168">
      <stop
         style="stop-color:#030403;stop-opacity:1;"
         offset="0"
         id="stop4170" />
      <stop
         style="stop-color:#030403;stop-opacity:0;"
         offset="1"
         id="stop4172" />
    </linearGradient>
    <linearGradient
       id="linearGradient4156">
      <stop
         style="stop-color:#ffffff;stop-opacity:1;"
         offset="0"
         id="stop4158" />
      <stop
         style="stop-color:#ffcd00;stop-opacity:0;"
         offset="1"
         id="stop4160" />
    </linearGradient>
    <linearGradient
       id="linearGradient4138">
      <stop
         id="stop4148"
         offset="0"
         style="stop-color:#ffa800;stop-opacity:1;" />
      <stop
         id="stop4146"
         offset="1"
         style="stop-color:#ee8500;stop-opacity:1;" />
      <stop
         style="stop-color:#ff27ff;stop-opacity:0;"
         offset="1"
         id="stop4142" />
    </linearGradient>
    <linearGradient
       id="linearGradient4094">
      <stop
         style="stop-color:#ffffff;stop-opacity:1;"
         offset="0"
         id="stop4096" />
      <stop
         style="stop-color:#ff6600;stop-opacity:0;"
         offset="1"
         id="stop4098" />
    </linearGradient>
    <linearGradient
       id="linearGradient3110">
      <stop
         style="stop-color:#ffffff;stop-opacity:1;"
         offset="0"
         id="stop3112" />
      <stop
         style="stop-color:#ffffff;stop-opacity:0;"
         offset="1"
         id="stop3114" />
    </linearGradient>
    <radialGradient
       inkscape:collect="always"
       xlink:href="#linearGradient4138"
       id="radialGradient4144"
       cx="128.98126"
       cy="961.93353"
       fx="128.98126"
       fy="961.93353"
       r="67.88312"
       gradientTransform="matrix(0.00400853,-1.4463772,0.8401472,0.00233639,-681.78174,1132.5543)"
       gradientUnits="userSpaceOnUse" />
    <linearGradient
       inkscape:collect="always"
       xlink:href="#linearGradient4156"
       id="linearGradient4164"
       x1="209.4659"
       y1="55.982704"
       x2="207.71909"
       y2="209.92603"
       gradientUnits="userSpaceOnUse" />
    <linearGradient
       inkscape:collect="always"
       xlink:href="#linearGradient4168"
       id="linearGradient4176"
       x1="256.78571"
       y1="267.96429"
       x2="253.21429"
       y2="-81.678574"
       gradientUnits="userSpaceOnUse" />
  </defs>
  <sodipodi:namedview
     id="base"
     pagecolor="#ffffff"
     bordercolor="#666666"
     borderopacity="1.0"
     inkscape:pageopacity="0.0"
     inkscape:pageshadow="2"
     inkscape:zoom="2"
     inkscape:cx="251.45324"
     inkscape:cy="80.997459"
     inkscape:document-units="px"
     inkscape:current-layer="layer1"
     showgrid="true"
     inkscape:window-width="1693"
     inkscape:window-height="949"
     inkscape:window-x="2239"
     inkscape:window-y="0"
     inkscape:window-maximized="0"
     inkscape:snap-grids="true"
     showguides="true"
     inkscape:snap-global="false">
    <inkscape:grid
       type="xygrid"
       id="grid3029"
       empspacing="5"
       visible="true"
       enabled="true"
       snapvisiblegridlinesonly="true" />
  </sodipodi:namedview>
  <metadata
     id="metadata7">
    <rdf:RDF>
      <cc:Work
         rdf:about="">
        <dc:format>image/svg+xml</dc:format>
        <dc:type
           rdf:resource="http://purl.org/dc/dcmitype/StillImage" />
        <dc:title></dc:title>
      </cc:Work>
    </rdf:RDF>
  </metadata>
  <g
     inkscape:label="Layer 1"
     inkscape:groupmode="layer"
     id="layer1"
     style="display:inline"
     transform="translate(0,-796.36218)">
    <rect
       transform="translate(0,796.36218)"
       y="0.28571388"
       x="0.35714287"
       height="255.35715"
       width="255.35715"
       id="rect4180"
       style="fill:#ffffff;fill-opacity:1;stroke:none" />
    <rect
       style="fill:url(#linearGradient4176);fill-opacity:1;stroke:none"
       id="rect4166"
       width="255.35715"
       height="255.35715"
       x="0.35714287"
       y="0.28571388"
       transform="translate(0,796.36218)" />
    <path
       sodipodi:type="arc"
       style="fill:#030403;fill-opacity:0.39215686;stroke:none"
       id="path4178"
       sodipodi:cx="274"
       sodipodi:cy="273.5"
       sodipodi:rx="235"
       sodipodi:ry="228.5"
       d="m 274,45 a 235,228.5 0 0 1 235,228.5 l -235,0 z"
       transform="matrix(-1.5382977,0,0,1.452954,778.84716,741.12569)"
       sodipodi:start="4.712389"
       sodipodi:end="6.2831853" />
    <path
       style="fill:url(#radialGradient4144);fill-opacity:1"
       d="m 71.810824,926.67778 c 0.0077,-30.91462 26.525329,-54.04455 53.530846,-53.87573 26.80675,-0.22568 54.75224,23.73592 53.62701,53.90095 0.38875,33.11897 -19.11814,53.51712 -53.56777,53.45743 -26.850576,-0.0576 -53.650377,-23.23433 -53.590086,-53.48265 z"
       id="path3918"
       inkscape:connector-curvature="0"
       sodipodi:nodetypes="ccccc" />
    <path
       inkscape:connector-curvature="0"
       id="path3092"
       d="m 145.58133,1006.0651 c -15.2264,-0.6889 -28.0144,-4.4642 -38.20864,-11.27994 -15.409588,-10.30278 -25.69885,-27.67849 -29.414357,-49.67288 -1.772891,-10.49486 -1.336344,-18.91441 1.598942,-30.83811 2.725967,-11.07342 7.619905,-21.25898 14.136427,-29.42163 5.082991,-6.36699 12.824818,-12.63086 20.147358,-16.30113 8.77964,-4.40062 21.94014,-7.39591 32.53516,-7.40492 l 3.39632,-0.003 0,-8.09336 c 0,-4.45136 0.0975,-8.08622 0.21679,-8.07746 0.11923,0.01 12.63866,6.24042 27.82095,13.84812 l 27.60415,13.8322 -27.62581,13.75604 c -15.1942,7.56581 -27.72256,13.75604 -27.84076,13.75604 -0.11824,0 -0.18849,-3.47942 -0.15614,-7.73206 l 0.0587,-7.73205 -2.56817,0.0743 c -22.66168,0.65559 -38.18726,12.82964 -44.32437,34.75609 -1.8238,6.51601 -2.51081,12.22831 -2.02998,16.87868 0.71792,6.94338 2.89286,14.82298 5.71849,20.71766 5.78431,12.06663 15.7547,20.37749 28.24894,23.54687 8.55687,2.17073 20.55448,2.22797 28.74297,0.13723 13.78512,-3.51962 23.24655,-12.45616 27.88067,-26.33398 1.73682,-5.20115 3.05207,-13.24646 3.05504,-18.68748 l 5.6e-4,-1.80655 3.7104,0 c 2.04073,0 8.23626,0.0864 13.76786,0.19206 l 10.05747,0.19206 -0.20029,2.91522 c -1.10964,16.15122 -6.88929,32.30903 -15.72441,43.96023 -9.47537,12.49523 -24.29625,21.00255 -41.23854,23.67115 -5.60219,0.8824 -14.11497,1.3883 -19.36628,1.1506 z"
       style="fill:none" />
    <path
       style="fill:#ff6600"
       d=""
       id="path3906"
       inkscape:connector-curvature="0" />
    <path
       style="fill:#ff6600"
       d=""
       id="path3908"
       inkscape:connector-curvature="0" />
    <path
       style="fill:#ff6600"
       d=""
       id="path3910"
       inkscape:connector-curvature="0" />
    <path
       sodipodi:type="arc"
       style="fill:url(#linearGradient4164);fill-opacity:1;stroke:none"
       id="path4152"
       sodipodi:cx="151.78572"
       sodipodi:cy="146.17857"
       sodipodi:rx="55.894218"
       sodipodi:ry="53.75"
       d="m 207.67994,146.17857 a 55.894218,53.75 0 1 1 -111.788438,0 55.894218,53.75 0 1 1 111.788438,0 z"
       transform="matrix(0.61798378,0,0,0.49574829,33.692058,834.86409)" />
    <path
       sodipodi:nodetypes="cccccccccccc"
       inkscape:connector-curvature="0"
       id="path4070"
       d="m 45.078503,929.53657 c -0.01444,-43.97242 40.199124,-84.31535 84.178507,-84.30962 0,0 0.0188,-15.52107 0.0188,-19.05796 20.14373,10.58899 49.07624,23.56359 69.04763,34.46641 0,0 -67.70125,33.57605 -69.03767,34.33426 -0.0346,-2.45843 -0.0288,-18.98503 -0.0288,-18.98503 -26.88594,-0.0641 -53.503567,26.73868 -53.361905,53.49598 -0.0315,30.79271 26.597255,53.70615 53.453015,53.76253 26.76497,0 53.54873,-26.92733 53.54873,-53.74055 11.12734,0.0372 17.80361,0.0158 30.76109,0.1163 0.0222,44.16362 -40.29526,84.04131 -84.34681,83.98921 -43.868581,0.036 -84.077798,-40.01841 -84.23262,-84.07153 z"
       style="fill:#030403;fill-opacity:0.53968255;stroke:none" />
    <path
       style="fill:#ffffff;stroke:none"
       d="m 41.130878,926.43487 c -0.01444,-43.97242 40.199124,-84.31536 84.178512,-84.30963 0,0 0.0188,-15.52107 0.0188,-19.05795 20.14373,10.58898 49.07624,23.56359 69.04763,34.4664 0,0 -67.70124,33.57606 -69.03769,34.33427 -0.0346,-2.45843 -0.0288,-18.98504 -0.0288,-18.98504 -26.88594,-0.0641 -53.503573,26.73869 -53.361911,53.49598 -0.0315,30.79272 26.597256,53.70622 53.453021,53.76259 26.76496,0 53.54872,-26.92738 53.54872,-53.74061 11.12733,0.0373 17.80361,0.0158 30.7611,0.1163 0.0222,44.16363 -40.29526,84.04152 -84.34681,83.98912 -43.868586,0.036 -84.077804,-40.01831 -84.232626,-84.07143 z"
       id="path3964"
       inkscape:connector-curvature="0"
       sodipodi:nodetypes="cccccccccccc" />
  </g>
</svg>
