<?xml version="1.0" encoding="UTF-8" standalone="no"?>
<!-- Created with Inkscape (http://www.inkscape.org/) -->

<svg
   xmlns:dc="http://purl.org/dc/elements/1.1/"
   xmlns:cc="http://creativecommons.org/ns#"
   xmlns:rdf="http://www.w3.org/1999/02/22-rdf-syntax-ns#"
   xmlns:svg="http://www.w3.org/2000/svg"
   xmlns="http://www.w3.org/2000/svg"
   xmlns:xlink="http://www.w3.org/1999/xlink"
   xmlns:sodipodi="http://sodipodi.sourceforge.net/DTD/sodipodi-0.dtd"
   xmlns:inkscape="http://www.inkscape.org/namespaces/inkscape"
   width="256"
   height="256"
   id="svg2"
   version="1.1"
   inkscape:version="0.48.2 r9819"
   sodipodi:docname="reloadNoBackground.svg">
  <defs
     id="defs4">
    <linearGradient
       inkscape:collect="always"
       id="linearGradient4168">
      <stop
         style="stop-color:#030403;stop-opacity:1;"
         offset="0"
         id="stop4170" />
      <stop
         style="stop-color:#030403;stop-opacity:0;"
         offset="1"
         id="stop4172" />
    </linearGradient>
    <linearGradient
       id="linearGradient4156">
      <stop
         style="stop-color:#ffffff;stop-opacity:1;"
         offset="0"
         id="stop4158" />
      <stop
         style="stop-color:#ffcd00;stop-opacity:0;"
         offset="1"
         id="stop4160" />
    </linearGradient>
    <linearGradient
       id="linearGradient4138">
      <stop
         id="stop4148"
         offset="0"
         style="stop-color:#ffa800;stop-opacity:1;" />
      <stop
         id="stop4146"
         offset="1"
         style="stop-color:#ee8500;stop-opacity:1;" />
      <stop
         style="stop-color:#ff27ff;stop-opacity:0;"
         offset="1"
         id="stop4142" />
    </linearGradient>
    <linearGradient
       id="linearGradient4094">
      <stop
         style="stop-color:#ffffff;stop-opacity:1;"
         offset="0"
         id="stop4096" />
      <stop
         style="stop-color:#ff6600;stop-opacity:0;"
         offset="1"
         id="stop4098" />
    </linearGradient>
    <linearGradient
       id="linearGradient3110">
      <stop
         style="stop-color:#ffffff;stop-opacity:1;"
         offset="0"
         id="stop3112" />
      <stop
         style="stop-color:#ffffff;stop-opacity:0;"
         offset="1"
         id="stop3114" />
    </linearGradient>
    <radialGradient
       inkscape:collect="always"
       xlink:href="#linearGradient4138"
       id="radialGradient4144"
       cx="128.98126"
       cy="961.93353"
       fx="128.98126"
       fy="961.93353"
       r="67.88312"
       gradientTransform="matrix(0.0049973,-1.8031496,1.0473832,0.0029127,-882.42064,1189.3943)"
       gradientUnits="userSpaceOnUse" />
    <linearGradient
       inkscape:collect="always"
       xlink:href="#linearGradient4156"
       id="linearGradient4164"
       x1="209.4659"
       y1="55.982704"
       x2="207.71909"
       y2="209.92603"
       gradientUnits="userSpaceOnUse" />
    <linearGradient
       inkscape:collect="always"
       xlink:href="#linearGradient4168"
       id="linearGradient4176"
       x1="256.78571"
       y1="267.96429"
       x2="253.21429"
       y2="-81.678574"
       gradientUnits="userSpaceOnUse" />
  </defs>
  <sodipodi:namedview
     id="base"
     pagecolor="#ffffff"
     bordercolor="#666666"
     borderopacity="1.0"
     inkscape:pageopacity="0.0"
     inkscape:pageshadow="2"
     inkscape:zoom="2"
     inkscape:cx="251.45324"
     inkscape:cy="80.997459"
     inkscape:document-units="px"
     inkscape:current-layer="layer1"
     showgrid="true"
     inkscape:window-width="1693"
     inkscape:window-height="949"
     inkscape:window-x="2239"
     inkscape:window-y="0"
     inkscape:window-maximized="0"
     inkscape:snap-grids="true"
     showguides="true"
     inkscape:snap-global="false">
    <inkscape:grid
       type="xygrid"
       id="grid3029"
       empspacing="5"
       visible="true"
       enabled="true"
       snapvisiblegridlinesonly="true" />
  </sodipodi:namedview>
  <metadata
     id="metadata7">
    <rdf:RDF>
      <cc:Work
         rdf:about="">
        <dc:format>image/svg+xml</dc:format>
        <dc:type
           rdf:resource="http://purl.org/dc/dcmitype/StillImage" />
        <dc:title></dc:title>
      </cc:Work>
    </rdf:RDF>
  </metadata>
  <g
     inkscape:label="Layer 1"
     inkscape:groupmode="layer"
     id="layer1"
     style="display:inline"
     transform="translate(0,-796.36218)">
    <path
       style="fill:url(#radialGradient4144);fill-opacity:1"
       d="m 57.05778,932.73499 c 0.0096,-38.54021 33.068233,-67.37552 66.7351,-67.16505 33.41907,-0.28135 68.25777,29.59077 66.85498,67.19649 0.48464,41.2883 -23.83394,66.71799 -66.78113,66.64358 -33.473705,-0.0718 -66.884113,-28.96546 -66.80895,-66.67502 z"
       id="path3918"
       inkscape:connector-curvature="0"
       sodipodi:nodetypes="ccccc" />
    <path
       inkscape:connector-curvature="0"
       id="path3092"
       d="m 149.02498,1031.7045 c -18.98224,-0.8588 -34.92461,-5.5654 -47.63342,-14.0623 -19.210615,-12.8442 -32.037891,-34.50588 -36.669888,-61.92554 -2.210203,-13.08359 -1.665975,-23.57996 1.993347,-38.44483 3.398371,-13.80486 9.499479,-26.50285 17.623407,-36.67895 6.336793,-7.93752 15.988264,-15.74647 25.117034,-20.32207 10.94528,-5.48611 27.35203,-9.22023 40.56048,-9.23147 l 4.23408,-0.004 0,-10.08972 c 0,-5.54936 0.12155,-10.08081 0.27027,-10.06989 0.14864,0.0125 15.75619,7.77972 34.68343,17.26398 l 34.41317,17.24414 -34.44017,17.14919 c -18.94209,9.43204 -34.56078,17.14919 -34.70813,17.14919 -0.14741,0 -0.23499,-4.33768 -0.19466,-9.6393 l 0.0732,-9.63928 -3.20165,0.0926 c -28.25155,0.81731 -47.60677,15.99428 -55.257696,43.32925 -2.27367,8.12329 -3.130142,15.24462 -2.530708,21.04208 0.895007,8.65608 3.606431,18.47931 7.129044,25.82801 7.21111,15.04306 19.64086,25.40393 35.217,29.35511 10.66757,2.7061 25.62458,2.7775 35.8329,0.171 17.18544,-4.38774 28.98068,-15.52862 34.75789,-32.82963 2.16523,-6.4841 3.80491,-16.51391 3.80861,-23.29705 l 7e-4,-2.25217 4.62563,0 c 2.54411,0 10.26787,0.10772 17.16393,0.23944 l 12.5383,0.23943 -0.24969,3.63431 c -1.38335,20.13518 -8.58865,40.27858 -19.60309,54.80377 -11.81263,15.5773 -30.28932,26.1831 -51.4107,29.51 -6.98406,1.1 -17.59665,1.7307 -24.14329,1.4344 z"
       style="fill:none" />
    <path
       style="fill:#ff6600"
       d=""
       id="path3906"
       inkscape:connector-curvature="0" />
    <path
       style="fill:#ff6600"
       d=""
       id="path3908"
       inkscape:connector-curvature="0" />
    <path
       style="fill:#ff6600"
       d=""
       id="path3910"
       inkscape:connector-curvature="0" />
    <path
       sodipodi:type="arc"
       style="fill:url(#linearGradient4164);fill-opacity:1;stroke:none"
       id="path4152"
       sodipodi:cx="151.78572"
       sodipodi:cy="146.17857"
       sodipodi:rx="55.894218"
       sodipodi:ry="53.75"
       d="m 207.67994,146.17857 a 55.894218,53.75 0 1 1 -111.788438,0 55.894218,53.75 0 1 1 111.788438,0 z"
       transform="matrix(0.77041952,0,0,0.61803266,9.536401,818.27396)" />
    <path
       sodipodi:nodetypes="cccccccccccc"
       inkscape:connector-curvature="0"
       id="path4070"
       d="m 23.731498,936.29895 c -0.018,-54.81893 50.114891,-105.1131 104.942502,-105.10596 0,0 0.0234,-19.34959 0.0234,-23.75892 25.11251,13.20094 61.18169,29.37594 86.07935,42.96811 0,0 -84.40086,41.85813 -86.06693,42.80337 -0.0431,-3.06484 -0.0359,-23.668 -0.0359,-23.668 -33.517792,-0.0799 -66.70109,33.33421 -66.524484,66.69163 -0.03927,38.38824 33.1579,66.95362 66.638074,67.02392 33.36698,0 66.75739,-33.56938 66.75739,-66.99651 13.87208,0.0464 22.19516,0.0197 38.34881,0.14498 0.0277,55.0573 -50.23474,104.77143 -105.15232,104.70653 C 74.051942,1041.153 23.924468,991.21849 23.731457,936.29895 z"
       style="fill:#030403;fill-opacity:0.53968255;stroke:none" />
    <path
       style="fill:#ffffff;stroke:none"
       d="m 18.810127,932.43216 c -0.018,-54.81893 50.114891,-105.11311 104.942513,-105.10597 0,0 0.0234,-19.34959 0.0234,-23.7589 25.11251,13.20092 61.1817,29.37593 86.07935,42.9681 0,0 -84.40085,41.85814 -86.06695,42.80337 -0.0431,-3.06484 -0.0359,-23.66801 -0.0359,-23.66801 -33.517792,-0.0799 -66.701097,33.33423 -66.524492,66.69164 -0.03927,38.38824 33.157902,66.95373 66.638082,67.024 33.36697,0 66.75738,-33.56945 66.75738,-66.9966 13.87206,0.0465 22.19516,0.0197 38.34882,0.14499 0.0277,55.0573 -50.23474,104.77172 -105.15232,104.70642 -54.689484,0.045 -104.816959,-49.8895 -105.009971,-104.80904 z"
       id="path3964"
       inkscape:connector-curvature="0"
       sodipodi:nodetypes="cccccccccccc" />
  </g>
</svg>
